PathFileType	4	(X/Y/Z)	 s08c0401.trc
DataRate	CameraRate	NumFrames	NumMarkers	Units	OrigDataRate	OrigDataStartFrame	OrigNumFrames
200	200	4	50	mm	200	1	2000
Frame#	Time	racr			lacr			c7			jug			rlel			rdr			llel			ldr			s2			lic			ric			lasi			rasi			rpsi			lpsi			rgt			lgt			rth1			rth2			rth3			rth4			rlfc			rmfc			rsh1			rsh2			rsh3			rsh4			rlmal			rmmal			rcal			rtoe			rmt5			lth1			lth2			lth4			lth3			llfc			lmfc			llmal			lmmal			lcal			lmt5			lsh1			lsh2			lsh3			lsh4			ltoe			SBIKE			LBIKE			RBIKE			
		X1	Y1	Z1	X2	Y2	Z2	X3	Y3	Z3	X4	Y4	Z4	X5	Y5	Z5	X6	Y6	Z6	X7	Y7	Z7	X8	Y8	Z8	X9	Y9	Z9	X10	Y10	Z10	X11	Y11	Z11	X12	Y12	Z12	X13	Y13	Z13	X14	Y14	Z14	X15	Y15	Z15	X16	Y16	Z16	X17	Y17	Z17	X18	Y18	Z18	X19	Y19	Z19	X20	Y20	Z20	X21	Y21	Z21	X22	Y22	Z22	X23	Y23	Z23	X24	Y24	Z24	X25	Y25	Z25	X26	Y26	Z26	X27	Y27	Z27	X28	Y28	Z28	X29	Y29	Z29	X30	Y30	Z30	X31	Y31	Z31	X32	Y32	Z32	X33	Y33	Z33	X34	Y34	Z34	X35	Y35	Z35	X36	Y36	Z36	X37	Y37	Z37	X38	Y38	Z38	X39	Y39	Z39	X40	Y40	Z40	X41	Y41	Z41	X42	Y42	Z42	X43	Y43	Z43	X44	Y44	Z44	X45	Y45	Z45	X46	Y46	Z46	X47	Y47	Z47	X48	Y48	Z48	X49	Y49	Z49	X50	Y50	Z50	
1	0.0050	500.326322	1406.632229	-39.615923	528.581864	1420.249350	-403.865276	487.494835	1477.928505	-213.028481	479.912805	1326.910975	-218.538196	581.787832	1161.160785	17.184348	787.527152	933.884932	-44.277683	621.473007	1175.441168	-446.861550	759.815591	1028.481082	-452.131513	-45.328825	1209.975355	-240.699219	138.147552	1191.311323	-385.119472	107.972513	1219.932450	-69.914052	150.754608	1128.856000	-345.358891	128.599872	1166.330046	-102.459757	-18.304994	1254.598007	-189.970537	-7.371737	1249.883869	-283.527285	25.163416	1127.749711	-26.949894	51.971961	1072.694105	-410.539413	175.887362	1050.689406	-21.960550	264.081576	1038.835904	-21.523532	332.611968	985.123798	-23.833769	278.000297	1070.706892	-35.153963	434.789148	922.370616	-44.092342	422.828525	910.685456	-151.743118	364.042580	812.310424	-17.670506	352.387982	724.329776	-37.413241	298.780796	657.341478	-47.381345	402.370896	731.108200	-86.493132	245.176630	552.718537	-59.941825	289.635872	587.501344	-163.314523	164.776848	526.685870	-105.460173	461.632732	509.465203	-96.248949	371.916305	479.940567	-31.571385	96.448672	944.343557	-426.441003	143.633749	870.806970	-420.765986	172.256152	883.662123	-438.527893	146.682768	781.991116	-419.049487	180.046278	658.420809	-392.851371	172.655404	635.257156	-294.087517	91.649038	250.658009	-398.099497	116.060010	269.439971	-312.211813	24.425383	224.883035	-359.380561	231.550922	164.368868	-414.633990	150.973259	534.298123	-422.360377	154.046958	450.170911	-404.086876	118.027688	370.064802	-408.817747	173.294303	450.225382	-369.978781	311.231462	192.622503	-343.560683	-135.398959	944.604215	-222.148278	26.614170	84.148237	-426.618912	18.364010	80.360397	-27.991461	
2	0.0100	500.321159	1406.636365	-39.556865	528.585333	1420.233882	-403.828363	487.536768	1477.875575	-213.002693	480.196884	1326.957074	-218.593764	581.715337	1161.130136	17.226533	787.504041	933.905594	-44.248937	621.469364	1175.431835	-446.844391	760.176853	1028.595164	-452.099972	-45.223668	1209.987357	-240.809440	138.186112	1191.273044	-385.161846	107.958076	1219.969318	-69.917538	150.805032	1128.832640	-345.376418	128.619085	1166.352377	-102.452328	-18.252341	1254.573534	-190.034033	-7.307891	1249.858376	-283.592223	25.198336	1127.761092	-26.984517	52.018327	1072.651341	-410.559755	175.910906	1050.719899	-21.993737	264.092156	1038.879477	-21.529787	332.643133	985.158653	-23.843011	278.030243	1070.755480	-35.177362	434.775368	922.394781	-44.081920	422.828626	910.693693	-151.765287	364.047468	812.349202	-17.685830	352.393835	724.362374	-37.412327	298.751131	657.370416	-47.379770	402.460423	731.150250	-86.498611	245.154405	552.766561	-59.922193	289.634255	587.534232	-163.313340	164.744255	526.728081	-105.478355	461.597493	509.489809	-96.235949	371.895427	479.951545	-31.582364	96.497574	944.286085	-426.405414	143.684659	870.750238	-420.748832	172.258202	883.557135	-438.497730	146.715954	781.937793	-419.022370	180.088914	658.391871	-392.846191	172.682717	635.235517	-294.064622	91.678534	250.633937	-398.118762	116.125534	269.397037	-312.207400	24.442773	224.831441	-359.360927	231.573693	164.372714	-414.638589	151.031696	534.273462	-422.336732	154.081047	450.132255	-404.067442	118.064071	370.037142	-408.817193	173.342293	450.203448	-369.968811	311.275566	192.620964	-343.564063	-135.400170	944.600892	-222.145692	26.625939	84.146359	-426.627841	18.356839	80.361998	-27.989087	
3	0.0150	500.277039	1406.620879	-39.524706	528.611077	1420.221369	-403.817606	487.597911	1477.851567	-212.977476	480.225187	1326.945921	-218.578276	581.648871	1161.125456	17.266753	787.509507	933.910710	-44.226436	621.489269	1175.431966	-446.866949	760.353524	1028.488478	-451.933848	-45.190046	1209.952150	-240.836571	138.230572	1191.248674	-385.144277	107.959664	1219.987866	-69.925721	150.872078	1128.821407	-345.394717	128.630968	1166.368602	-102.477041	-18.100531	1254.481001	-189.880384	-7.246275	1249.832642	-283.643352	25.209560	1127.783914	-27.017223	52.078647	1072.597206	-410.554496	175.917833	1050.737655	-22.026594	264.123155	1038.906609	-21.562394	332.657501	985.194836	-23.842566	278.049590	1070.772049	-35.195815	434.789103	922.396745	-44.082021	422.845817	910.643720	-151.693233	364.038188	812.352737	-17.697969	352.413235	724.366024	-37.411481	298.753482	657.395155	-47.384343	402.410270	731.185736	-86.510558	245.110888	552.785632	-59.916033	289.585312	587.551660	-163.292714	164.732121	526.736772	-105.474568	461.560498	509.500354	-96.238771	371.872078	479.962493	-31.578639	96.529768	944.241946	-426.390026	143.731231	870.693867	-420.712212	172.310690	883.518878	-438.484162	146.740656	781.877041	-418.990914	180.127571	658.349885	-392.814537	172.707230	635.199596	-294.021424	91.681759	250.601813	-398.096006	116.131492	269.363581	-312.195007	24.449893	224.785187	-359.350463	231.583592	164.366478	-414.642526	151.070346	534.230832	-422.324874	154.106094	450.093614	-404.035422	118.087152	370.007046	-408.793655	173.356037	450.144895	-369.911470	311.299107	192.632656	-343.572196	-135.392971	944.594098	-222.147775	26.611671	84.168388	-426.613103	18.358270	80.353284	-28.007759	
4	0.0200	499.553951	1405.713048	-41.227574	526.403963	1420.156857	-404.383561	487.802854	1477.901983	-213.029916	471.064575	1323.592319	-211.423482	581.608102	1161.092507	17.276864	787.497553	933.838189	-44.278567	620.658008	1176.241697	-449.794153	760.444755	1028.509081	-451.921825	-45.142330	1209.947622	-240.894848	139.311999	1190.566434	-383.883666	107.853236	1219.905991	-69.900875	153.790801	1132.467956	-353.924736	128.650213	1166.395925	-102.489667	-18.234506	1254.247149	-189.860292	-7.179902	1249.820732	-283.702812	25.218372	1127.813077	-27.040114	52.299983	1072.487258	-410.328976	175.915410	1050.782781	-22.043747	264.005235	1039.504031	-22.154332	332.662517	985.165961	-23.831920	278.071086	1070.790784	-35.219288	434.773098	922.403218	-44.085114	422.574169	911.179765	-153.231435	364.139121	812.386289	-17.892901	352.396325	724.373008	-37.412814	298.750979	657.383601	-47.388833	389.728104	727.894770	-86.959050	245.120527	552.793672	-59.908379	286.682411	587.553518	-166.647127	165.386246	525.255565	-105.666255	461.559752	509.507737	-96.235210	371.776587	480.008130	-31.523170	96.058203	944.907938	-427.861599	143.853466	870.594852	-420.539393	173.970880	882.761821	-429.735374	147.157004	781.744685	-418.052242	180.257166	658.306425	-392.623738	172.540952	636.616497	-298.038148	92.276298	249.592437	-396.604813	114.342336	270.735929	-314.208117	24.446124	224.749432	-359.324226	230.770486	166.351967	-417.356787	151.279709	534.055716	-422.062461	154.159180	450.139422	-404.067707	117.581702	370.900503	-410.248361	173.364666	450.108280	-369.891075	310.492250	193.853427	-345.180001	-135.389469	944.599582	-222.149328	26.619062	84.163593	-426.617342	17.755166	79.005300	-30.186426	
